<svg width="128px" height="128px" viewBox="0 0 1024 1024" version="1.1" xmlns="http://www.w3.org/2000/svg"><path fill="#BFCBD9" d="M918.22188 80.618252h-150.654659V17.15462a17.152333 17.152333 0 0 0-17.152333-17.152333h-69.752821a17.152333 17.152333 0 0 0-17.152333 17.152333v63.463632H360.199311V17.15462A17.152333 17.152333 0 0 0 342.761106 0.002287H273.58003A17.152333 17.152333 0 0 0 256.999441 17.15462v63.463632H105.773038A48.312405 48.312405 0 0 0 56.888889 128.07304v848.182869a48.312405 48.312405 0 0 0 48.884149 47.740661h812.448842a48.312405 48.312405 0 0 0 48.884149-47.740661V128.07304a48.312405 48.312405 0 0 0-48.884149-47.454788zM180.671559 274.153743a12.006633 12.006633 0 0 1 12.292505-12.006633h587.753279a12.006633 12.006633 0 0 1 12.292506 12.006633v36.305772a12.006633 12.006633 0 0 1-12.292506 12.006633H192.964064a12.006633 12.006633 0 0 1-12.292505-12.006633z m0 122.067437a12.006633 12.006633 0 0 1 12.292505-12.006633h587.753279a12.006633 12.006633 0 0 1 12.292506 12.006633v36.305772a12.006633 12.006633 0 0 1-12.292506 12.006633H192.964064a12.006633 12.006633 0 0 1-12.292505-12.006633z m0 122.067437a12.006633 12.006633 0 0 1 12.292505-12.006633h488.841492a12.006633 12.006633 0 0 1 12.292505 12.006633v36.305772a12.006633 12.006633 0 0 1-12.292505 12.006633H192.964064a12.006633 12.006633 0 0 1-12.292505-12.006633z m350.765211 158.373208a12.006633 12.006633 0 0 1-12.292506 12.006634H192.964064a12.006633 12.006633 0 0 1-12.292505-12.006634V640.356054a12.006633 12.006633 0 0 1 12.292505-11.434889h326.1802a12.006633 12.006633 0 0 1 12.292506 12.006633zM885.918319 777.002974a9.719655 9.719655 0 0 1-10.005527 9.719655H771.569432v104.057487a9.719655 9.719655 0 0 1-10.005527 9.719656h-30.8742a9.719655 9.719655 0 0 1-10.005527-9.719656v-104.057487h-106.630337a9.719655 9.719655 0 0 1-10.005528-9.719655v-28.587222a9.719655 9.719655 0 0 1 10.005528-9.719655h106.630337v-104.629232a9.719655 9.719655 0 0 1 10.005527-9.719655h30.016583a9.719655 9.719655 0 0 1 10.005528 9.719655v104.057487h106.630337a9.719655 9.719655 0 0 1 10.005527 9.719656z" /></svg>
