<svg class="icon" width="128px" height="128px" viewBox="0 0 1024 1024" version="1.1" xmlns="http://www.w3.org/2000/svg"><path fill="#BFCBD9" d="M630.784 626.688c-39.936 0-72.704 32.256-72.704 72.704s32.256 72.704 72.704 72.704c15.872 0 30.72-5.12 43.52-14.336l8.192-6.144 6.144-8.192c9.216-12.288 14.336-27.648 14.336-43.52 0-40.96-32.256-73.216-72.192-73.216z"  /><path fill="#333333" d="M757.76 143.36H256c-50.688 0-92.16 41.472-92.16 92.16v583.68c0 50.688 41.472 92.16 92.16 92.16h501.76c50.688 0 92.16-41.472 92.16-92.16V235.52c0-50.688-41.472-92.16-92.16-92.16zM327.68 322.56h368.64c13.824 0 20.48 6.656 20.48 20.48s-6.656 20.48-20.48 20.48H327.68c-13.824 0-20.48-6.656-20.48-20.48s6.656-20.48 20.48-20.48z m-25.6 184.32c0-13.824 6.656-20.48 20.48-20.48h240.64c13.824 0 20.48 6.656 20.48 20.48s-6.656 20.48-20.48 20.48H322.56c-13.824 0-20.48-6.656-20.48-20.48z m454.656 318.464c-5.632 5.632-14.848 5.632-20.48 0l-44.544-44.544c-16.896 12.8-37.888 19.968-60.928 19.968-55.808 0-101.376-45.568-101.376-101.376s45.568-101.376 101.376-101.376 101.376 45.568 101.376 101.376c0 23.04-7.68 44.032-19.968 60.928l44.544 44.544c5.632 5.632 5.632 14.848 0 20.48z"  /></svg>
